<svg xmlns="http://www.w3.org/2000/svg" xmlns:xlink="http://www.w3.org/1999/xlink" xmlns:s="https://github.com/nturley/netlistsvg" width="400" height="160"><style>    svg {
        stroke:#000;
        fill:none;
    }
    text {
        fill:#000;
        stroke:none;
        font-size:10px;
        font-weight: bold;
        font-family: "Courier New", monospace;
    }
    line {
        stroke-linecap: round;
    }
    .nodelabel {
        text-anchor: middle;
    }
    .inputPortLabel {
        text-anchor: end;
    }
    .splitjoinBody {
        fill:#000;
    }</style><g s:type="and" transform="translate(348,94.5)" s:width="30" s:height="25" id="cell_$and$/home/kevlar/Verilog/作业4/4-2/top.v:13$4"><s:alias val="$and"/><s:alias val="$logic_and"/><s:alias val="$_AND_"/><s:alias val="$reduce_and"/><path style="fill:#80D4FF" d="M0,0 L0,25 L15,25 A15 12.5 0 0 0 15,0 Z" class="cell_$and$/home/kevlar/Verilog/作业4/4-2/top.v:13$4"/><g s:x="0" s:y="5" s:pid="A"/><g s:x="0" s:y="20" s:pid="B"/><g s:x="30" s:y="12.5" s:pid="Y"/><text x="3.0" y="15" class="smalltext">and</text></g><g s:type="and" transform="translate(282,32.5)" s:width="30" s:height="25" id="cell_$and$/home/kevlar/Verilog/作业4/4-2/top.v:14$5"><s:alias val="$and"/><s:alias val="$logic_and"/><s:alias val="$_AND_"/><s:alias val="$reduce_and"/><path style="fill:#80D4FF" d="M0,0 L0,25 L15,25 A15 12.5 0 0 0 15,0 Z" class="cell_$and$/home/kevlar/Verilog/作业4/4-2/top.v:14$5"/><g s:x="0" s:y="5" s:pid="A"/><g s:x="0" s:y="20" s:pid="B"/><g s:x="30" s:y="12.5" s:pid="Y"/><text x="3.0" y="15" class="smalltext">and</text></g><g s:type="not" transform="translate(215,27.5)" s:width="30" s:height="20" id="cell_$not$/home/kevlar/Verilog/作业4/4-2/top.v:0$2"><s:alias val="$_NOT_"/><s:alias val="$not"/><s:alias val="$logic_not"/><path style="fill:#FFE680" d="M0,0 L0,20 L20,10 Z" class="cell_$not$/home/kevlar/Verilog/作业4/4-2/top.v:0$2"/><circle cx="24" cy="10" r="3" class="cell_$not$/home/kevlar/Verilog/作业4/4-2/top.v:0$2"/><g s:x="-1" s:y="10" s:pid="A"/><g s:x="27" s:y="10" s:pid="Y"/></g><g s:type="not" transform="translate(84,77)" s:width="30" s:height="20" id="cell_$not$/home/kevlar/Verilog/作业4/4-2/top.v:0$6"><s:alias val="$_NOT_"/><s:alias val="$not"/><s:alias val="$logic_not"/><path style="fill:#FFE680" d="M0,0 L0,20 L20,10 Z" class="cell_$not$/home/kevlar/Verilog/作业4/4-2/top.v:0$6"/><circle cx="24" cy="10" r="3" class="cell_$not$/home/kevlar/Verilog/作业4/4-2/top.v:0$6"/><g s:x="-1" s:y="10" s:pid="A"/><g s:x="27" s:y="10" s:pid="Y"/></g><g s:type="or" transform="translate(149,25)" s:width="30" s:height="25" id="cell_$or$/home/kevlar/Verilog/作业4/4-2/top.v:11$1"><s:alias val="$or"/><s:alias val="$logic_or"/><s:alias val="$_OR_"/><s:alias val="$reduce_or"/><s:alias val="$reduce_bool"/><path style="fill:#80D4FF" d="M0,25 L0,25 L15,25 A15 12.5 0 0 0 15,0 L0,0" class="cell_$or$/home/kevlar/Verilog/作业4/4-2/top.v:11$1"/><path style="fill:#ffffff" d="M0,0 A30 25 0 0 1 0,25" class="cell_$or$/home/kevlar/Verilog/作业4/4-2/top.v:11$1"/><g s:x="2" s:y="5" s:pid="A"/><g s:x="2" s:y="20" s:pid="B"/><g s:x="30" s:y="12.5" s:pid="Y"/><text x="8.0" y="15" class="smalltext">or</text></g><g s:type="reduce_xor" transform="translate(280,102)" s:width="33" s:height="25" id="cell_$xor$/home/kevlar/Verilog/作业4/4-2/top.v:12$3"><s:alias val="$xor"/><s:alias val="$reduce_xor"/><s:alias val="$_XOR_"/><path style="fill:#80D4FF" d="M3,0 A30 25 0 0 1 3,25 A30 25 0 0 0 33,12.5 A30 25 0 0 0 3,0" class="cell_$xor$/home/kevlar/Verilog/作业4/4-2/top.v:12$3"/><path style="fill:#ffffff" d="M0,0 A30 25 0 0 1 0,25" class="cell_$xor$/home/kevlar/Verilog/作业4/4-2/top.v:12$3"/><g s:x="2" s:y="5" s:pid="A"/><g s:x="2" s:y="20" s:pid="B"/><g s:x="33" s:y="12.5" s:pid="Y"/><text x="10.0" y="15" class="smalltext">xor</text></g><g s:type="inputExt" transform="translate(84,22)" s:width="30" s:height="20" id="cell_data"><text x="15" y="-4" class="nodelabel cell_data" s:attribute="ref">data</text><s:alias val="$_inputExt_"/><path style="fill:#FDF766" d="M0,0 L0,16 L15,16 L24,8 L15,0 Z" class="cell_data"/><g s:x="24" s:y="8" s:pid="Y"/></g><g s:type="inputExt" transform="translate(12,79)" s:width="30" s:height="20" id="cell_enable"><text x="15" y="-4" class="nodelabel cell_enable" s:attribute="ref">enable</text><s:alias val="$_inputExt_"/><path style="fill:#FDF766" d="M0,0 L0,16 L15,16 L24,8 L15,0 Z" class="cell_enable"/><g s:x="24" s:y="8" s:pid="Y"/></g><g s:type="inputExt" transform="translate(215,128)" s:width="30" s:height="20" id="cell_val"><text x="15" y="-4" class="nodelabel cell_val" s:attribute="ref">val</text><s:alias val="$_inputExt_"/><path style="fill:#FDF766" d="M0,0 L0,16 L15,16 L24,8 L15,0 Z" class="cell_val"/><g s:x="24" s:y="8" s:pid="Y"/></g><g s:type="outputExt" transform="translate(348,37)" s:width="30" s:height="20" id="cell_dout"><text x="15" y="-4" class="nodelabel cell_dout" s:attribute="ref">dout</text><s:alias val="$_outputExt_"/><path style="fill:#66FDD9" d="M24,0 L24,16 L10,16 L0,8 L10,0 Z" class="cell_dout"/><g s:x="0" s:y="8" s:pid="A"/></g><line x1="312" x2="323" y1="45" y2="45" class="net_5 width_1" style="stroke-width: 1"/><line x1="323" x2="323" y1="45" y2="99.5" class="net_5 width_1" style="stroke-width: 1"/><circle cx="323" cy="45" r="2" style="fill:#000" class="net_5 width_1"/><line x1="323" x2="348" y1="99.5" y2="99.5" class="net_5 width_1" style="stroke-width: 1"/><line x1="312" x2="348" y1="45" y2="45" class="net_5 width_1" style="stroke-width: 1"/><line x1="313" x2="348" y1="114.5" y2="114.5" class="net_6 width_1" style="stroke-width: 1"/><line x1="242" x2="282" y1="37.5" y2="37.5" class="net_8 width_1" style="stroke-width: 1"/><line x1="378" x2="388" y1="107" y2="107" class="net_7 width_1" style="stroke-width: 1"/><line x1="388" x2="388" y1="107" y2="17" class="net_7 width_1" style="stroke-width: 1"/><line x1="388" x2="255" y1="17" y2="17" class="net_7 width_1" style="stroke-width: 1"/><line x1="255" x2="255" y1="17" y2="52.5" class="net_7 width_1" style="stroke-width: 1"/><line x1="255" x2="282" y1="52.5" y2="52.5" class="net_7 width_1" style="stroke-width: 1"/><line x1="179" x2="214" y1="37.5" y2="37.5" class="net_9 width_1" style="stroke-width: 1"/><line x1="36" x2="83" y1="87" y2="87" class="net_3 width_1" style="stroke-width: 1"/><line x1="36" x2="58" y1="87" y2="87" class="net_3 width_1" style="stroke-width: 1"/><line x1="58" x2="58" y1="87" y2="107" class="net_3 width_1" style="stroke-width: 1"/><circle cx="58" cy="87" r="2" style="fill:#000" class="net_3 width_1"/><line x1="58" x2="282" y1="107" y2="107" class="net_3 width_1" style="stroke-width: 1"/><line x1="108" x2="151" y1="30" y2="30" class="net_2 width_1" style="stroke-width: 1"/><line x1="111" x2="124" y1="87" y2="87" class="net_10 width_1" style="stroke-width: 1"/><line x1="124" x2="124" y1="87" y2="45" class="net_10 width_1" style="stroke-width: 1"/><line x1="124" x2="151" y1="45" y2="45" class="net_10 width_1" style="stroke-width: 1"/><line x1="239" x2="255" y1="136" y2="136" class="net_4 width_1" style="stroke-width: 1"/><line x1="255" x2="255" y1="136" y2="122" class="net_4 width_1" style="stroke-width: 1"/><line x1="255" x2="282" y1="122" y2="122" class="net_4 width_1" style="stroke-width: 1"/></svg>